# xmcd CD database file
#
# Track frame offsets:
#	150
#	18078
#	38056
#	47823
#	64000
#	77771
#	90386
#	102225
#	116645
#	135862
#	150988
#	166070
#	187366
#	198020
#	217358
#	229236
#
# Disc length: 3122 seconds
#
# Revision: 0
# Processed by: cddbd v1.5.1PL0 Copyright (c) Steve Scherf et al.
# Submitted via: CDex 1.50beta10
#
DISCID=ca0c3010
DTITLE=Grennland Whalefishers  - Unreleased In The East
DYEAR=2004
DGENRE=Country
TTITLE0=Acid In N.Y
TTITLE1=Johnny Lee Roth
TTITLE2=Loboville
TTITLE3=Hole In Our Hearts
TTITLE4=July Morning
TTITLE5=Magic Town
TTITLE6=Two Weeks Off
TTITLE7=4 Season Song
TTITLE8=The Clown
TTITLE9=I am Roving
TTITLE10=The Mainstreet Sword
TTITLE11=If
TTITLE12=Elleland Road
TTITLE13=Nothing Really Matters
TTITLE14=Mary B.
TTITLE15=No More Crucified Days 2
EXTD=YEAR: 2004
EXTT0=
EXTT1=
EXTT2=
EXTT3=
EXTT4=
EXTT5=
EXTT6=
EXTT7=
EXTT8=
EXTT9=
EXTT10=
EXTT11=
EXTT12=
EXTT13=
EXTT14=
EXTT15=
PLAYORDER=
